
<svg width="40"  viewBox="0 8 40 25" fill="none" xmlns="http://www.w3.org/2000/svg">
<g clip-path="url(#clip0_5_907)">
<path d="M39.9208 20.6183C40.57 24.5842 37.1275 26.8185 33.6359 27.0766C31.4136 31.6424 23.58 34.7246 16.7968 31.4011C13.8918 31.8424 12.3018 31.1162 11.0739 29.7254C13.5554 26.5325 21.0705 20.7881 30.2515 23.7519C35.151 25.3405 36.4247 21.6204 35.1957 20.2307C30.5722 14.98 20.1298 19.7067 19.7577 20.1C23.8549 13.8238 38.5219 12.0632 39.9208 20.6183ZM25.8627 13.416C25.8884 13.4071 22.5286 12.2207 17.8325 14.2494C17.642 14.1802 17.4555 14.1004 17.2739 14.0104C21.7946 11.0041 25.7554 9.72941 29.1432 10.2254C27.0906 7.86488 17.2381 6.13106 11.5923 11.7894C4.61355 10.4131 -0.266898 16.3206 0.011314 21.7243C0.289526 27.128 6.18338 30.4862 9.53757 29.5757C9.61808 29.5657 9.69952 29.5657 9.78003 29.5757C10.5297 26.0075 13.561 17.7048 25.8627 13.416Z" fill="#2160E1"/>
</g>
<defs>
<clipPath id="clip0_5_907">
<rect width="40" height="35" />
</clipPath>
</defs>
</svg>
