<?xml version="1.0" encoding="UTF-8" standalone="no"?>
<svg width="70px" height="69px" viewBox="0 0 70 69" version="1.1" xmlns="http://www.w3.org/2000/svg" xmlns:xlink="http://www.w3.org/1999/xlink">
    <!-- Generator: Sketch 39.1 (31720) - http://www.bohemiancoding.com/sketch -->
    <title>Artboard</title>
    <desc>Created with Sketch.</desc>
    <defs></defs>
    <g id="Page-2" stroke="none" stroke-width="1" fill="none" fill-rule="evenodd">
        <g id="Artboard">
            <g id="symbol">
                <g id="Group">
                    <g id="Shape" fill="#007DA9">
                        <path d="M56.749,40.193 C57.085,39.347 57.383,38.489 57.635,37.613 L56.236,37.958 L56.749,40.193 L56.749,40.193 Z"></path>
                        <path d="M36.845,52.646 C36.38,52.792 35.912,52.926 35.439,53.044 C35.331,53.004 35.223,52.973 35.114,52.932 C35.722,52.754 36.316,52.552 36.915,52.344 L38.97,43.409 L38.477,42.341 L33.645,43.534 L35.53,47.565 C33.142,48.429 30.644,49.057 28.116,49.399 C26.037,47.912 24.165,46.116 22.538,44.041 C23.535,43.905 24.535,43.731 25.524,43.535 L25.23,42.764 L23.772,38.874 C22.377,39.13 20.978,39.311 19.578,39.436 C18.905,38.155 18.299,36.816 17.781,35.397 C17.34,34.199 16.972,32.98 16.667,31.751 C20.164,31.484 23.669,30.763 27.092,29.579 L28.665,32.942 L33.039,30.759 L31.615,27.72 C34.701,26.246 37.513,24.435 40.013,22.334 C40.724,23.619 41.351,24.951 41.915,26.317 L46.308,24.116 C45.535,22.3 44.645,20.531 43.628,18.836 C45.197,17.092 46.586,15.207 47.759,13.213 C49.28,14.929 50.57,16.868 51.575,18.973 C51.042,20.164 50.433,21.294 49.775,22.382 L56.843,18.856 C52.577,7.875 41.881,0.069 29.52,0.069 C29.401,0.069 29.274,0.069 29.157,0.071 C21.323,0.168 14.008,3.303 8.551,8.904 C3.088,14.505 0.134,21.894 0.232,29.717 C0.331,37.541 3.466,44.86 9.071,50.327 C14.581,55.702 21.824,58.644 29.509,58.644 C29.638,58.644 29.762,58.644 29.891,58.642 C31.833,58.622 33.749,58.413 35.602,58.018 L36.845,52.646 L36.845,52.646 Z M37.602,6.349 C39.938,7.173 42.102,8.354 44.059,9.813 C43.135,11.533 42.022,13.157 40.76,14.661 C39.198,12.691 37.474,10.942 35.625,9.415 C36.366,8.43 37.025,7.406 37.602,6.349 L37.602,6.349 Z M37.305,18.176 C34.985,20.197 32.36,21.921 29.534,23.287 L26.665,17.189 C28.729,16.043 30.657,14.639 32.368,13.03 C34.366,14.661 36,16.456 37.305,18.176 L37.305,18.176 Z M29.21,4.957 C30.372,4.937 31.518,5.019 32.643,5.164 C32.332,5.651 31.996,6.129 31.644,6.6 C30.63,6.003 29.587,5.464 28.525,4.984 C28.756,4.967 28.987,4.958 29.21,4.957 L29.21,4.957 Z M28.195,10.229 C27.085,11.179 25.87,12.028 24.586,12.753 L22.341,7.964 C24.501,8.505 26.449,9.283 28.195,10.229 L28.195,10.229 Z M18.159,10.547 L20.113,14.708 C18.926,15.065 17.738,15.309 16.559,15.439 C16.963,13.759 17.499,12.123 18.159,10.547 L18.159,10.547 Z M15.764,20.4 C17.888,20.293 20.054,19.879 22.199,19.152 L24.998,25.124 C22.04,26.103 18.957,26.712 15.837,26.903 C15.608,24.725 15.578,22.544 15.764,20.4 L15.764,20.4 Z M12.039,12.311 C12.192,12.165 12.34,12.023 12.496,11.872 C12.141,12.986 11.832,14.112 11.593,15.263 C11.015,15.158 10.444,15.018 9.889,14.848 C10.543,13.964 11.258,13.115 12.039,12.311 L12.039,12.311 Z M7.338,19.139 C8.494,19.572 9.684,19.89 10.904,20.103 C10.726,22.339 10.734,24.607 10.935,26.866 C9.049,26.72 7.178,26.419 5.343,25.944 C5.675,23.571 6.348,21.285 7.338,19.139 L7.338,19.139 Z M6.985,38.741 C5.952,36.281 5.334,33.652 5.161,30.929 C7.299,31.415 9.482,31.711 11.69,31.821 C12.072,33.595 12.568,35.357 13.195,37.074 C13.517,37.939 13.866,38.769 14.237,39.59 C11.754,39.515 9.314,39.233 6.985,38.741 L6.985,38.741 Z M14.113,48.288 C13.555,47.832 13.008,47.343 12.477,46.83 C11.628,46.004 10.849,45.124 10.138,44.202 C11.971,44.41 13.831,44.515 15.698,44.515 C16.1,44.515 16.495,44.5 16.898,44.485 C18.113,46.352 19.485,48.071 20.998,49.62 C18.664,49.442 16.354,48.999 14.113,48.288 L14.113,48.288 Z"></path>
                    </g>
                    <path d="M52.635,36.311 C52.591,36.078 52.49,35.873 52.383,35.677 L69.875,31.371 L64.546,18.501 L26.596,37.476 L28.161,41.656 L43.461,37.879 L37.135,65.332 C36.852,66.523 37.606,67.732 38.814,68.007 C38.975,68.054 39.145,68.069 39.313,68.069 C40.328,68.069 41.243,67.351 41.479,66.328 L46,46.748 L46,65.833 C46,67.058 47.01,68.069 48.238,68.069 C49.466,68.069 50.46,67.057 50.46,65.833 L50.46,46.73 L54.981,66.328 C55.225,67.351 56.141,68.069 57.156,68.069 C57.325,68.069 57.493,68.053 57.663,68.007 C58.863,67.733 59.608,66.524 59.333,65.332 L52.635,36.311 L52.635,36.311 Z" id="Shape" fill="#F6A623"></path>
                </g>
            </g>
        </g>
    </g>
</svg>